# xmcd
#
# Track frame offsets:
#	150
#	16792
#	32645
#	48782
#	62290
#	79487
#	97412
#	112702
#	128950
#	144275
#	161235
#	178282
#	193447
#	210632
#
# Disc length: 3042
#
# Revision: 1
# Processed by: cddbd v1.5.1PL0 Copyright (c) Steve Scherf et al.
# Submitted via: CD-Transfer v1.0
# Normalized: r0:DSETVAR2
#
DISCID=c30be00e
DTITLE=Various Artist - Maximum Dance Vol. 1997-07
DYEAR=1997
DGENRE=
TTITLE0=Space Frog - X-Ray (Follow Me)
TTITLE1=Sash! Feat. Rodriguez - Ecuador
TTITLE2=Disco Citizens - Footprint
TTITLE3=Hypertrophy - Just Come Back To Me
TTITLE4=Nalin and Kane - Beachball
TTITLE5=Chicane - Sunstroke
TTITLE6=Porn Kings - Amour
TTITLE7=Disco Nation - Rock Da Jam
TTITLE8=Klubbheads - Discohopping
TTITLE9=Flip Da Scrip - You Can Run
TTITLE10=Boy George - Love Is Leaving
TTITLE11=Gala - Let A Boy Cry
TTITLE12=Marshall - Sir Duke
TTITLE13=Bed and Breakfast, Mola Adebesi, Squeezer - Get It Right
EXTD=
EXTT0=
EXTT1=
EXTT2=
EXTT3=
EXTT4=
EXTT5=
EXTT6=
EXTT7=
EXTT8=
EXTT9=
EXTT10=
EXTT11=
EXTT12=
EXTT13=
PLAYORDER=
